STARTFONT 2.1
COMMENT Recovered from arc.ast's:PRNT10 AST (MIT CADR AST source recovered from ARC!!!)
FONT MIT-CADR-PRNT10
SIZE 16 72 72
FONTBOUNDINGBOX 16 16 0 -5
STARTPROPERTIES 2
FONT_ASCENT 11
FONT_DESCENT 5
ENDPROPERTIES
CHARS 102
STARTCHAR C0001
ENCODING -1 1
SWIDTH 1000 0
DWIDTH 16 0
BBX 16 16 0 -5
BITMAP
0000
11DF
11F0
1201
0001
0000
11DF
11F0
1201
0001
0000
11DF
11F0
1201
0001
0000
ENDCHAR
STARTCHAR C0002
ENCODING -1 2
SWIDTH 375 0
DWIDTH 6 0
BBX 16 16 0 -5
BITMAP
0000
0000
0000
0800
1800
3800
7800
3800
1800
0800
0000
0000
0000
0000
0000
0000
ENDCHAR
STARTCHAR C0003
ENCODING -1 3
SWIDTH 438 0
DWIDTH 7 0
BBX 16 16 0 -5
BITMAP
0000
0000
1000
0800
0400
0400
0400
4800
5000
6000
7800
0000
0000
0000
0000
0000
ENDCHAR
STARTCHAR C0004
ENCODING -1 4
SWIDTH 625 0
DWIDTH 10 0
BBX 16 16 0 -5
BITMAP
0000
0000
0000
0000
0000
0000
0000
0000
4080
4080
7F80
0000
0000
0000
0000
0000
ENDCHAR
STARTCHAR C0005
ENCODING -1 5
SWIDTH 438 0
DWIDTH 7 0
BBX 16 16 0 -5
BITMAP
0000
4000
4000
4000
4000
7C00
4000
4000
4000
4000
4000
0000
0000
0000
0000
0000
ENDCHAR
STARTCHAR C000A
ENCODING -1 10
SWIDTH 250 0
DWIDTH 4 0
BBX 16 16 0 -5
BITMAP
0000
6000
6000
6000
6000
6000
6000
6000
0000
6000
6000
0000
0000
0000
0000
0000
ENDCHAR
STARTCHAR C0014
ENCODING -1 20
SWIDTH 750 0
DWIDTH 12 0
BBX 16 16 0 -5
BITMAP
0000
3FC0
2040
2F40
2940
2940
2F40
2040
5560
6AA0
7FE0
0000
0000
0000
0000
0000
ENDCHAR
STARTCHAR C0018
ENCODING -1 24
SWIDTH 0 0
DWIDTH 0 0
BBX 16 16 0 -5
BITMAP
0000
0000
0000
0000
0000
0000
0000
0000
0000
0000
0000
0000
0000
0000
FFFE
0000
ENDCHAR
STARTCHAR C0020
ENCODING -1 32
SWIDTH 438 0
DWIDTH 7 0
BBX 16 16 0 -5
BITMAP
0000
0000
0000
0000
0000
0000
0000
0000
0000
0000
0000
0000
0000
0000
0000
0000
ENDCHAR
STARTCHAR C0021
ENCODING -1 33
SWIDTH 188 0
DWIDTH 3 0
BBX 16 16 0 -5
BITMAP
0000
4000
4000
4000
4000
4000
4000
4000
0000
4000
4000
0000
0000
0000
0000
0000
ENDCHAR
STARTCHAR C0022
ENCODING -1 34
SWIDTH 375 0
DWIDTH 6 0
BBX 16 16 0 -5
BITMAP
0000
4800
4800
4800
4800
0000
0000
0000
0000
0000
0000
0000
0000
0000
0000
0000
ENDCHAR
STARTCHAR C0023
ENCODING -1 35
SWIDTH 750 0
DWIDTH 12 0
BBX 16 16 0 -5
BITMAP
0000
0240
0240
0480
3FE0
0900
0900
7FC0
1200
2400
2400
0000
0000
0000
0000
0000
ENDCHAR
STARTCHAR C0024
ENCODING -1 36
SWIDTH 562 0
DWIDTH 9 0
BBX 16 16 0 -5
BITMAP
0000
0800
3E00
4900
4900
4800
3E00
0900
4900
4900
3E00
0800
0000
0000
0000
0000
ENDCHAR
STARTCHAR C0025
ENCODING -1 37
SWIDTH 688 0
DWIDTH 11 0
BBX 16 16 0 -5
BITMAP
0000
3100
4900
4A00
3200
0400
0400
0980
0A40
1240
1180
0000
0000
0000
0000
0000
ENDCHAR
STARTCHAR C0026
ENCODING -1 38
SWIDTH 688 0
DWIDTH 11 0
BBX 16 16 0 -5
BITMAP
0000
1C00
2200
2200
1400
1C00
2240
4180
4100
2300
1CC0
0000
0000
0000
0000
0000
ENDCHAR
STARTCHAR C0027
ENCODING -1 39
SWIDTH 188 0
DWIDTH 3 0
BBX 16 16 0 -5
BITMAP
0000
4000
4000
4000
4000
0000
0000
0000
0000
0000
0000
0000
0000
0000
0000
0000
ENDCHAR
STARTCHAR C0028
ENCODING -1 40
SWIDTH 375 0
DWIDTH 6 0
BBX 16 16 0 -5
BITMAP
0000
0800
1000
2000
2000
4000
4000
4000
4000
4000
2000
2000
1000
0800
0000
0000
ENDCHAR
STARTCHAR C0029
ENCODING -1 41
SWIDTH 438 0
DWIDTH 7 0
BBX 16 16 0 -5
BITMAP
0000
2000
1000
0800
0800
0400
0400
0400
0400
0400
0800
0800
1000
2000
0000
0000
ENDCHAR
STARTCHAR C002A
ENCODING -1 42
SWIDTH 438 0
DWIDTH 7 0
BBX 16 16 0 -5
BITMAP
0000
1000
5400
3800
3800
5400
1000
0000
0000
0000
0000
0000
0000
0000
0000
0000
ENDCHAR
STARTCHAR C002B
ENCODING -1 43
SWIDTH 562 0
DWIDTH 9 0
BBX 16 16 0 -5
BITMAP
0000
0000
0000
0000
0800
0800
0800
7F00
0800
0800
0800
0000
0000
0000
0000
0000
ENDCHAR
STARTCHAR C002C
ENCODING -1 44
SWIDTH 250 0
DWIDTH 4 0
BBX 16 16 0 -5
BITMAP
0000
0000
0000
0000
0000
0000
0000
0000
0000
0000
6000
2000
2000
4000
0000
0000
ENDCHAR
STARTCHAR C002D
ENCODING -1 45
SWIDTH 500 0
DWIDTH 8 0
BBX 16 16 0 -5
BITMAP
0000
0000
0000
0000
0000
0000
0000
7E00
0000
0000
0000
0000
0000
0000
0000
0000
ENDCHAR
STARTCHAR C002E
ENCODING -1 46
SWIDTH 188 0
DWIDTH 3 0
BBX 16 16 0 -5
BITMAP
0000
0000
0000
0000
0000
0000
0000
0000
0000
4000
4000
0000
0000
0000
0000
0000
ENDCHAR
STARTCHAR C002F
ENCODING -1 47
SWIDTH 438 0
DWIDTH 7 0
BBX 16 16 0 -5
BITMAP
0000
0400
0400
0800
0800
1000
1000
2000
2000
4000
4000
0000
0000
0000
0000
0000
ENDCHAR
STARTCHAR C0030
ENCODING -1 48
SWIDTH 562 0
DWIDTH 9 0
BBX 16 16 0 -5
BITMAP
0000
0000
3E00
4100
4300
4500
4900
5100
6100
4100
3E00
0000
0000
0000
0000
0000
ENDCHAR
STARTCHAR C0031
ENCODING -1 49
SWIDTH 562 0
DWIDTH 9 0
BBX 16 16 0 -5
BITMAP
0000
0000
0E00
1200
2200
0200
0200
0200
0200
0200
0200
0000
0000
0000
0000
0000
ENDCHAR
STARTCHAR C0032
ENCODING -1 50
SWIDTH 562 0
DWIDTH 9 0
BBX 16 16 0 -5
BITMAP
0000
0000
3E00
4100
4100
0100
0600
1800
2000
4000
7F00
0000
0000
0000
0000
0000
ENDCHAR
STARTCHAR C0033
ENCODING -1 51
SWIDTH 562 0
DWIDTH 9 0
BBX 16 16 0 -5
BITMAP
0000
0000
3E00
4100
4100
0100
1E00
0100
4100
4100
3E00
0000
0000
0000
0000
0000
ENDCHAR
STARTCHAR C0034
ENCODING -1 52
SWIDTH 562 0
DWIDTH 9 0
BBX 16 16 0 -5
BITMAP
0000
0000
0E00
1200
1200
2200
2200
4200
7F80
0200
0200
0000
0000
0000
0000
0000
ENDCHAR
STARTCHAR C0035
ENCODING -1 53
SWIDTH 562 0
DWIDTH 9 0
BBX 16 16 0 -5
BITMAP
0000
0000
3F00
2000
2000
7E00
4100
0100
0100
4100
3E00
0000
0000
0000
0000
0000
ENDCHAR
STARTCHAR C0036
ENCODING -1 54
SWIDTH 562 0
DWIDTH 9 0
BBX 16 16 0 -5
BITMAP
0000
0000
3E00
4100
4000
7E00
4100
4100
4100
4100
3E00
0000
0000
0000
0000
0000
ENDCHAR
STARTCHAR C0037
ENCODING -1 55
SWIDTH 562 0
DWIDTH 9 0
BBX 16 16 0 -5
BITMAP
0000
0000
7F00
0100
0200
0400
0400
0800
0800
1000
1000
0000
0000
0000
0000
0000
ENDCHAR
STARTCHAR C0038
ENCODING -1 56
SWIDTH 562 0
DWIDTH 9 0
BBX 16 16 0 -5
BITMAP
0000
0000
3E00
4100
4100
4100
3E00
4100
4100
4100
3E00
0000
0000
0000
0000
0000
ENDCHAR
STARTCHAR C0039
ENCODING -1 57
SWIDTH 562 0
DWIDTH 9 0
BBX 16 16 0 -5
BITMAP
0000
0000
3E00
4100
4100
4100
4100
3F00
0100
4100
3E00
0000
0000
0000
0000
0000
ENDCHAR
STARTCHAR C003A
ENCODING -1 58
SWIDTH 188 0
DWIDTH 3 0
BBX 16 16 0 -5
BITMAP
0000
0000
0000
0000
0000
4000
4000
0000
0000
4000
4000
0000
0000
0000
0000
0000
ENDCHAR
STARTCHAR C003B
ENCODING -1 59
SWIDTH 250 0
DWIDTH 4 0
BBX 16 16 0 -5
BITMAP
0000
0000
0000
0000
0000
2000
2000
0000
0000
0000
6000
2000
2000
4000
0000
0000
ENDCHAR
STARTCHAR C003C
ENCODING -1 60
SWIDTH 438 0
DWIDTH 7 0
BBX 16 16 0 -5
BITMAP
0000
0000
0400
0800
1000
2000
4000
2000
1000
0800
0400
0000
0000
0000
0000
0000
ENDCHAR
STARTCHAR C003D
ENCODING -1 61
SWIDTH 438 0
DWIDTH 7 0
BBX 16 16 0 -5
BITMAP
0000
0000
0000
0000
0000
0000
0000
7C00
0000
7C00
0000
0000
0000
0000
0000
0000
ENDCHAR
STARTCHAR C003E
ENCODING -1 62
SWIDTH 438 0
DWIDTH 7 0
BBX 16 16 0 -5
BITMAP
0000
0000
4000
2000
1000
0800
0400
0800
1000
2000
4000
0000
0000
0000
0000
0000
ENDCHAR
STARTCHAR C003F
ENCODING -1 63
SWIDTH 500 0
DWIDTH 8 0
BBX 16 16 0 -5
BITMAP
0000
3C00
4200
4200
0400
0800
1000
1000
0000
1000
1000
0000
0000
0000
0000
0000
ENDCHAR
STARTCHAR C0040
ENCODING -1 64
SWIDTH 625 0
DWIDTH 10 0
BBX 16 16 0 -5
BITMAP
0000
1E00
2100
4080
4780
4880
4880
4700
4000
2080
1F00
0000
0000
0000
0000
0000
ENDCHAR
STARTCHAR C0041
ENCODING -1 65
SWIDTH 625 0
DWIDTH 10 0
BBX 16 16 0 -5
BITMAP
0000
0C00
1E00
1200
1200
2100
2100
3F00
4080
4080
4080
0000
0000
0000
0000
0000
ENDCHAR
STARTCHAR C0042
ENCODING -1 66
SWIDTH 625 0
DWIDTH 10 0
BBX 16 16 0 -5
BITMAP
0000
7E00
4100
4100
4100
7E00
4100
4100
4100
4100
7E00
0000
0000
0000
0000
0000
ENDCHAR
STARTCHAR C0043
ENCODING -1 67
SWIDTH 625 0
DWIDTH 10 0
BBX 16 16 0 -5
BITMAP
0000
1F00
2080
4080
4000
4000
4000
4000
4080
2080
1F00
0000
0000
0000
0000
0000
ENDCHAR
STARTCHAR C0044
ENCODING -1 68
SWIDTH 625 0
DWIDTH 10 0
BBX 16 16 0 -5
BITMAP
0000
7E00
4100
4080
4080
4080
4080
4080
4080
4100
7E00
0000
0000
0000
0000
0000
ENDCHAR
STARTCHAR C0045
ENCODING -1 69
SWIDTH 562 0
DWIDTH 9 0
BBX 16 16 0 -5
BITMAP
0000
7F00
4000
4000
4000
7E00
4000
4000
4000
4000
7F00
0000
0000
0000
0000
0000
ENDCHAR
STARTCHAR C0046
ENCODING -1 70
SWIDTH 500 0
DWIDTH 8 0
BBX 16 16 0 -5
BITMAP
0000
7F00
4000
4000
4000
7E00
4000
4000
4000
4000
4000
0000
0000
0000
0000
0000
ENDCHAR
STARTCHAR C0047
ENCODING -1 71
SWIDTH 625 0
DWIDTH 10 0
BBX 16 16 0 -5
BITMAP
0000
1E00
2100
4080
4000
4000
4780
4080
4080
2180
1E80
0000
0000
0000
0000
0000
ENDCHAR
STARTCHAR C0048
ENCODING -1 72
SWIDTH 562 0
DWIDTH 9 0
BBX 16 16 0 -5
BITMAP
0000
4100
4100
4100
4100
7F00
4100
4100
4100
4100
4100
0000
0000
0000
0000
0000
ENDCHAR
STARTCHAR C0049
ENCODING -1 73
SWIDTH 188 0
DWIDTH 3 0
BBX 16 16 0 -5
BITMAP
0000
4000
4000
4000
4000
4000
4000
4000
4000
4000
4000
0000
0000
0000
0000
0000
ENDCHAR
STARTCHAR C004A
ENCODING -1 74
SWIDTH 500 0
DWIDTH 8 0
BBX 16 16 0 -5
BITMAP
0000
0200
0200
0200
0200
0200
0200
4200
4200
4200
3C00
0000
0000
0000
0000
0000
ENDCHAR
STARTCHAR C004B
ENCODING -1 75
SWIDTH 562 0
DWIDTH 9 0
BBX 16 16 0 -5
BITMAP
0000
4200
4400
4800
5000
6000
5000
4800
4400
4200
4100
0000
0000
0000
0000
0000
ENDCHAR
STARTCHAR C004C
ENCODING -1 76
SWIDTH 500 0
DWIDTH 8 0
BBX 16 16 0 -5
BITMAP
0000
4000
4000
4000
4000
4000
4000
4000
4000
4000
7E00
0000
0000
0000
0000
0000
ENDCHAR
STARTCHAR C004D
ENCODING -1 77
SWIDTH 812 0
DWIDTH 13 0
BBX 16 16 0 -5
BITMAP
0000
7070
5050
5050
4890
4890
4890
4510
4510
4210
4210
0000
0000
0000
0000
0000
ENDCHAR
STARTCHAR C004E
ENCODING -1 78
SWIDTH 625 0
DWIDTH 10 0
BBX 16 16 0 -5
BITMAP
0000
6080
5080
5080
4880
4880
4480
4480
4280
4280
4180
0000
0000
0000
0000
0000
ENDCHAR
STARTCHAR C004F
ENCODING -1 79
SWIDTH 625 0
DWIDTH 10 0
BBX 16 16 0 -5
BITMAP
0000
1E00
2100
4080
4080
4080
4080
4080
4080
2100
1E00
0000
0000
0000
0000
0000
ENDCHAR
STARTCHAR C0050
ENCODING -1 80
SWIDTH 562 0
DWIDTH 9 0
BBX 16 16 0 -5
BITMAP
0000
7E00
4100
4100
4100
4100
7E00
4000
4000
4000
4000
0000
0000
0000
0000
0000
ENDCHAR
STARTCHAR C0051
ENCODING -1 81
SWIDTH 625 0
DWIDTH 10 0
BBX 16 16 0 -5
BITMAP
0000
1E00
2100
4080
4080
4080
4080
4080
4080
2100
1E00
0200
0100
0000
0000
0000
ENDCHAR
STARTCHAR C0052
ENCODING -1 82
SWIDTH 562 0
DWIDTH 9 0
BBX 16 16 0 -5
BITMAP
0000
7E00
4100
4100
4100
7E00
4100
4100
4100
4100
4100
0000
0000
0000
0000
0000
ENDCHAR
STARTCHAR C0053
ENCODING -1 83
SWIDTH 562 0
DWIDTH 9 0
BBX 16 16 0 -5
BITMAP
0000
3E00
4100
4100
4000
3E00
0100
0100
4100
4100
3E00
0000
0000
0000
0000
0000
ENDCHAR
STARTCHAR C0054
ENCODING -1 84
SWIDTH 562 0
DWIDTH 9 0
BBX 16 16 0 -5
BITMAP
0000
7F00
0800
0800
0800
0800
0800
0800
0800
0800
0800
0000
0000
0000
0000
0000
ENDCHAR
STARTCHAR C0055
ENCODING -1 85
SWIDTH 625 0
DWIDTH 10 0
BBX 16 16 0 -5
BITMAP
0000
4080
4080
4080
4080
4080
4080
4080
4080
2100
1E00
0000
0000
0000
0000
0000
ENDCHAR
STARTCHAR C0056
ENCODING -1 86
SWIDTH 625 0
DWIDTH 10 0
BBX 16 16 0 -5
BITMAP
0000
4080
4080
4080
2100
2100
2100
1200
1200
1E00
0C00
0000
0000
0000
0000
0000
ENDCHAR
STARTCHAR C0057
ENCODING -1 87
SWIDTH 938 0
DWIDTH 15 0
BBX 16 16 0 -5
BITMAP
0000
4104
4104
4104
2388
2288
2288
26C8
1450
1450
1C70
0000
0000
0000
0000
0000
ENDCHAR
STARTCHAR C0058
ENCODING -1 88
SWIDTH 562 0
DWIDTH 9 0
BBX 16 16 0 -5
BITMAP
0000
4100
4100
2200
2200
1C00
1400
2200
2200
4100
4100
0000
0000
0000
0000
0000
ENDCHAR
STARTCHAR C0059
ENCODING -1 89
SWIDTH 688 0
DWIDTH 11 0
BBX 16 16 0 -5
BITMAP
0000
4040
4040
2080
1100
1100
0E00
0400
0400
0400
0400
0000
0000
0000
0000
0000
ENDCHAR
STARTCHAR C005A
ENCODING -1 90
SWIDTH 625 0
DWIDTH 10 0
BBX 16 16 0 -5
BITMAP
0000
3F80
0080
0100
0200
0400
0800
1000
2000
4000
7F80
0000
0000
0000
0000
0000
ENDCHAR
STARTCHAR C005B
ENCODING -1 91
SWIDTH 438 0
DWIDTH 7 0
BBX 16 16 0 -5
BITMAP
0000
7C00
4000
4000
4000
4000
4000
4000
4000
4000
4000
4000
4000
7C00
0000
0000
ENDCHAR
STARTCHAR C005C
ENCODING -1 92
SWIDTH 500 0
DWIDTH 8 0
BBX 16 16 0 -5
BITMAP
0000
4000
4000
2000
2000
1000
1000
0800
0800
0400
0400
0200
0200
0000
0000
0000
ENDCHAR
STARTCHAR C005D
ENCODING -1 93
SWIDTH 500 0
DWIDTH 8 0
BBX 16 16 0 -5
BITMAP
0000
7C00
0400
0400
0400
0400
0400
0400
0400
0400
0400
0400
0400
7C00
0000
0000
ENDCHAR
STARTCHAR C005E
ENCODING -1 94
SWIDTH 562 0
DWIDTH 9 0
BBX 16 16 0 -5
BITMAP
0000
0000
0000
0800
1C00
2A00
4900
0800
0800
0800
0800
0000
0000
0000
0000
0000
ENDCHAR
STARTCHAR C005F
ENCODING -1 95
SWIDTH 625 0
DWIDTH 10 0
BBX 16 16 0 -5
BITMAP
0000
0000
0000
0800
1000
2000
7F80
2000
1000
0800
0000
0000
0000
0000
0000
0000
ENDCHAR
STARTCHAR C0061
ENCODING -1 97
SWIDTH 562 0
DWIDTH 9 0
BBX 16 16 0 -5
BITMAP
0000
0000
0000
0000
3C00
0200
3E00
4200
4200
4200
3D00
0000
0000
0000
0000
0000
ENDCHAR
STARTCHAR C0062
ENCODING -1 98
SWIDTH 500 0
DWIDTH 8 0
BBX 16 16 0 -5
BITMAP
0000
4000
4000
4000
7C00
4200
4200
4200
4200
4200
7C00
0000
0000
0000
0000
0000
ENDCHAR
STARTCHAR C0063
ENCODING -1 99
SWIDTH 500 0
DWIDTH 8 0
BBX 16 16 0 -5
BITMAP
0000
0000
0000
0000
3C00
4200
4000
4000
4200
4200
3C00
0000
0000
0000
0000
0000
ENDCHAR
STARTCHAR C0064
ENCODING -1 100
SWIDTH 500 0
DWIDTH 8 0
BBX 16 16 0 -5
BITMAP
0000
0200
0200
0200
3E00
4200
4200
4200
4200
4200
3E00
0000
0000
0000
0000
0000
ENDCHAR
STARTCHAR C0065
ENCODING -1 101
SWIDTH 500 0
DWIDTH 8 0
BBX 16 16 0 -5
BITMAP
0000
0000
0000
0000
3C00
4200
4200
7E00
4000
4200
3C00
0000
0000
0000
0000
0000
ENDCHAR
STARTCHAR C0066
ENCODING -1 102
SWIDTH 438 0
DWIDTH 7 0
BBX 16 16 0 -5
BITMAP
0000
1C00
2000
2000
7C00
2000
2000
2000
2000
2000
2000
0000
0000
0000
0000
0000
ENDCHAR
STARTCHAR C0067
ENCODING -1 103
SWIDTH 500 0
DWIDTH 8 0
BBX 16 16 0 -5
BITMAP
0000
0000
0000
0000
3E00
4200
4200
4200
4200
4200
3E00
0200
4200
3C00
0000
0000
ENDCHAR
STARTCHAR C0068
ENCODING -1 104
SWIDTH 500 0
DWIDTH 8 0
BBX 16 16 0 -5
BITMAP
0000
4000
4000
4000
7C00
4200
4200
4200
4200
4200
4200
0000
0000
0000
0000
0000
ENDCHAR
STARTCHAR C0069
ENCODING -1 105
SWIDTH 188 0
DWIDTH 3 0
BBX 16 16 0 -5
BITMAP
0000
4000
4000
0000
4000
4000
4000
4000
4000
4000
4000
0000
0000
0000
0000
0000
ENDCHAR
STARTCHAR C006A
ENCODING -1 106
SWIDTH 312 0
DWIDTH 5 0
BBX 16 16 0 -5
BITMAP
0000
1000
1000
0000
1000
1000
1000
1000
1000
1000
1000
1000
1000
E000
0000
0000
ENDCHAR
STARTCHAR C006B
ENCODING -1 107
SWIDTH 562 0
DWIDTH 9 0
BBX 16 16 0 -5
BITMAP
0000
4000
4000
4000
4200
4400
4800
5800
6400
4200
4100
0000
0000
0000
0000
0000
ENDCHAR
STARTCHAR C006C
ENCODING -1 108
SWIDTH 188 0
DWIDTH 3 0
BBX 16 16 0 -5
BITMAP
0000
4000
4000
4000
4000
4000
4000
4000
4000
4000
4000
0000
0000
0000
0000
0000
ENDCHAR
STARTCHAR C006D
ENCODING -1 109
SWIDTH 688 0
DWIDTH 11 0
BBX 16 16 0 -5
BITMAP
0000
0000
0000
0000
7F80
4440
4440
4440
4440
4440
4440
0000
0000
0000
0000
0000
ENDCHAR
STARTCHAR C006E
ENCODING -1 110
SWIDTH 500 0
DWIDTH 8 0
BBX 16 16 0 -5
BITMAP
0000
0000
0000
0000
7C00
4200
4200
4200
4200
4200
4200
0000
0000
0000
0000
0000
ENDCHAR
STARTCHAR C006F
ENCODING -1 111
SWIDTH 562 0
DWIDTH 9 0
BBX 16 16 0 -5
BITMAP
0000
0000
0000
0000
1C00
2200
4100
4100
4100
2200
1C00
0000
0000
0000
0000
0000
ENDCHAR
STARTCHAR C0070
ENCODING -1 112
SWIDTH 500 0
DWIDTH 8 0
BBX 16 16 0 -5
BITMAP
0000
0000
0000
0000
7C00
4200
4200
4200
4200
4200
7C00
4000
4000
4000
0000
0000
ENDCHAR
STARTCHAR C0071
ENCODING -1 113
SWIDTH 500 0
DWIDTH 8 0
BBX 16 16 0 -5
BITMAP
0000
0000
0000
0000
3E00
4200
4200
4200
4200
4200
3E00
0200
0200
0200
0000
0000
ENDCHAR
STARTCHAR C0072
ENCODING -1 114
SWIDTH 438 0
DWIDTH 7 0
BBX 16 16 0 -5
BITMAP
0000
0000
0000
0000
7800
4400
4400
4000
4000
4000
4000
0000
0000
0000
0000
0000
ENDCHAR
STARTCHAR C0073
ENCODING -1 115
SWIDTH 500 0
DWIDTH 8 0
BBX 16 16 0 -5
BITMAP
0000
0000
0000
0000
3C00
4000
4000
3C00
0200
0200
7C00
0000
0000
0000
0000
0000
ENDCHAR
STARTCHAR C0074
ENCODING -1 116
SWIDTH 438 0
DWIDTH 7 0
BBX 16 16 0 -5
BITMAP
0000
0000
2000
2000
7C00
2000
2000
2000
2000
2000
1C00
0000
0000
0000
0000
0000
ENDCHAR
STARTCHAR C0075
ENCODING -1 117
SWIDTH 500 0
DWIDTH 8 0
BBX 16 16 0 -5
BITMAP
0000
0000
0000
0000
4200
4200
4200
4200
4200
4200
3E00
0000
0000
0000
0000
0000
ENDCHAR
STARTCHAR C0076
ENCODING -1 118
SWIDTH 500 0
DWIDTH 8 0
BBX 16 16 0 -5
BITMAP
0000
0000
0000
0000
4200
4200
4200
2400
2400
2400
1800
0000
0000
0000
0000
0000
ENDCHAR
STARTCHAR C0077
ENCODING -1 119
SWIDTH 812 0
DWIDTH 13 0
BBX 16 16 0 -5
BITMAP
0000
0000
0000
0000
4210
4210
2220
2720
2520
1540
18C0
0000
0000
0000
0000
0000
ENDCHAR
STARTCHAR C0078
ENCODING -1 120
SWIDTH 500 0
DWIDTH 8 0
BBX 16 16 0 -5
BITMAP
0000
0000
0000
0000
4200
4200
2400
1800
2400
4200
4200
0000
0000
0000
0000
0000
ENDCHAR
STARTCHAR C0079
ENCODING -1 121
SWIDTH 562 0
DWIDTH 9 0
BBX 16 16 0 -5
BITMAP
0000
0000
0000
0000
4100
4100
2200
2200
1400
1400
0C00
0800
0800
7000
0000
0000
ENDCHAR
STARTCHAR C007A
ENCODING -1 122
SWIDTH 500 0
DWIDTH 8 0
BBX 16 16 0 -5
BITMAP
0000
0000
0000
0000
3E00
0200
0400
0800
1000
2000
7E00
0000
0000
0000
0000
0000
ENDCHAR
STARTCHAR C007B
ENCODING -1 123
SWIDTH 500 0
DWIDTH 8 0
BBX 16 16 0 -5
BITMAP
0000
0E00
1000
1000
1000
1000
1000
6000
1000
1000
1000
1000
1000
0E00
0000
0000
ENDCHAR
STARTCHAR C007C
ENCODING -1 124
SWIDTH 188 0
DWIDTH 3 0
BBX 16 16 0 -5
BITMAP
0000
4000
4000
4000
4000
4000
4000
4000
4000
4000
4000
4000
4000
4000
0000
0000
ENDCHAR
STARTCHAR C007D
ENCODING -1 125
SWIDTH 500 0
DWIDTH 8 0
BBX 16 16 0 -5
BITMAP
0000
7000
0800
0800
0800
0800
0800
0600
0800
0800
0800
0800
0800
7000
0000
0000
ENDCHAR
STARTCHAR C007E
ENCODING -1 126
SWIDTH 625 0
DWIDTH 10 0
BBX 16 16 0 -5
BITMAP
0000
0000
0000
0000
0000
0000
3880
4700
0000
0000
0000
0000
0000
0000
0000
0000
ENDCHAR
ENDFONT
